<svg width="38" height="32" viewBox="0 0 38 32" fill="none" xmlns="http://www.w3.org/2000/svg">
<rect x="0.5" y="0.5" width="37" height="31" rx="9.5" stroke="#70E61C"/>
<path d="M13.292 9.454C14.66 9.454 15.842 9.712 16.838 10.228C17.846 10.732 18.614 11.458 19.142 12.406C19.682 13.354 19.952 14.47 19.952 15.754C19.952 17.038 19.682 18.154 19.142 19.102C18.614 20.038 17.846 20.758 16.838 21.262C15.842 21.754 14.66 22 13.292 22H9.386V9.454H13.292ZM13.292 20.65C14.912 20.65 16.148 20.224 17 19.372C17.852 18.508 18.278 17.302 18.278 15.754C18.278 14.194 17.846 12.976 16.982 12.1C16.13 11.224 14.9 10.786 13.292 10.786H11.024V20.65H13.292ZM23.7506 10.786V14.98H28.3226V16.33H23.7506V20.65H28.8626V22H22.1126V9.436H28.8626V10.786H23.7506Z" fill="white"/>
</svg>
