<svg width="196" height="135" viewBox="0 0 196 135" fill="none" xmlns="http://www.w3.org/2000/svg">
<g filter="url(#filter0_d_105102_3276)">
<rect x="4" width="188" height="112" rx="20" fill="white"/>
<path d="M48.8226 124.845L39 112H65L55.1774 124.845C53.5764 126.938 50.4236 126.938 48.8226 124.845Z" fill="white"/>
</g>
<path d="M38.6958 11.848V23H37.2398V11.848H38.6958ZM49.7949 14.072C50.4563 14.072 51.0536 14.216 51.5869 14.504C52.1203 14.7813 52.5363 15.2027 52.8349 15.768C53.1443 16.3333 53.2989 17.0213 53.2989 17.832V23H51.8589V18.04C51.8589 17.1653 51.6403 16.4987 51.2029 16.04C50.7656 15.5707 50.1683 15.336 49.4109 15.336C48.6429 15.336 48.0296 15.576 47.5709 16.056C47.1229 16.536 46.8989 17.2347 46.8989 18.152V23H45.4429V11.16H46.8989V15.48C47.1869 15.032 47.5816 14.6853 48.0829 14.44C48.5949 14.1947 49.1656 14.072 49.7949 14.072ZM55.1333 18.584C55.1333 17.688 55.3146 16.904 55.6773 16.232C56.04 15.5493 56.536 15.0213 57.1653 14.648C57.8053 14.2747 58.5146 14.088 59.2933 14.088C60.0613 14.088 60.728 14.2533 61.2933 14.584C61.8586 14.9147 62.28 15.3307 62.5573 15.832V14.232H64.0293V23H62.5573V21.368C62.2693 21.88 61.8373 22.3067 61.2613 22.648C60.696 22.9787 60.0346 23.144 59.2773 23.144C58.4986 23.144 57.7946 22.952 57.1653 22.568C56.536 22.184 56.04 21.6453 55.6773 20.952C55.3146 20.2587 55.1333 19.4693 55.1333 18.584ZM62.5573 18.6C62.5573 17.9387 62.424 17.3627 62.1573 16.872C61.8906 16.3813 61.528 16.008 61.0693 15.752C60.6213 15.4853 60.1253 15.352 59.5813 15.352C59.0373 15.352 58.5413 15.48 58.0933 15.736C57.6453 15.992 57.288 16.3653 57.0213 16.856C56.7546 17.3467 56.6213 17.9227 56.6213 18.584C56.6213 19.256 56.7546 19.8427 57.0213 20.344C57.288 20.8347 57.6453 21.2133 58.0933 21.48C58.5413 21.736 59.0373 21.864 59.5813 21.864C60.1253 21.864 60.6213 21.736 61.0693 21.48C61.528 21.2133 61.8906 20.8347 62.1573 20.344C62.424 19.8427 62.5573 19.2613 62.5573 18.6ZM69.7538 21.656L72.4738 14.232H74.0258L70.5858 23H68.8898L65.4498 14.232H67.0178L69.7538 21.656ZM83.4586 18.28C83.4586 18.5573 83.4426 18.8507 83.4106 19.16H76.4026C76.4559 20.024 76.7492 20.7013 77.2826 21.192C77.8266 21.672 78.4826 21.912 79.2506 21.912C79.8799 21.912 80.4026 21.768 80.8186 21.48C81.2452 21.1813 81.5439 20.7867 81.7146 20.296H83.2826C83.0479 21.1387 82.5786 21.8267 81.8746 22.36C81.1706 22.8827 80.2959 23.144 79.2506 23.144C78.4186 23.144 77.6719 22.9573 77.0106 22.584C76.3599 22.2107 75.8479 21.6827 75.4746 21C75.1012 20.3067 74.9146 19.5067 74.9146 18.6C74.9146 17.6933 75.0959 16.8987 75.4586 16.216C75.8212 15.5333 76.3279 15.0107 76.9786 14.648C77.6399 14.2747 78.3972 14.088 79.2506 14.088C80.0826 14.088 80.8186 14.2693 81.4586 14.632C82.0986 14.9947 82.5892 15.496 82.9306 16.136C83.2826 16.7653 83.4586 17.48 83.4586 18.28ZM81.9546 17.976C81.9546 17.4213 81.8319 16.9467 81.5866 16.552C81.3412 16.1467 81.0052 15.8427 80.5786 15.64C80.1626 15.4267 79.6986 15.32 79.1866 15.32C78.4506 15.32 77.8212 15.5547 77.2986 16.024C76.7866 16.4933 76.4932 17.144 76.4186 17.976H81.9546ZM89.1021 18.584C89.1021 17.688 89.2834 16.904 89.6461 16.232C90.0087 15.5493 90.5047 15.0213 91.1341 14.648C91.7741 14.2747 92.4834 14.088 93.2621 14.088C94.0301 14.088 94.6967 14.2533 95.2621 14.584C95.8274 14.9147 96.2487 15.3307 96.5261 15.832V14.232H97.9981V23H96.5261V21.368C96.2381 21.88 95.8061 22.3067 95.2301 22.648C94.6647 22.9787 94.0034 23.144 93.2461 23.144C92.4674 23.144 91.7634 22.952 91.1341 22.568C90.5047 22.184 90.0087 21.6453 89.6461 20.952C89.2834 20.2587 89.1021 19.4693 89.1021 18.584ZM96.5261 18.6C96.5261 17.9387 96.3927 17.3627 96.1261 16.872C95.8594 16.3813 95.4967 16.008 95.0381 15.752C94.5901 15.4853 94.0941 15.352 93.5501 15.352C93.0061 15.352 92.5101 15.48 92.0621 15.736C91.6141 15.992 91.2567 16.3653 90.9901 16.856C90.7234 17.3467 90.5901 17.9227 90.5901 18.584C90.5901 19.256 90.7234 19.8427 90.9901 20.344C91.2567 20.8347 91.6141 21.2133 92.0621 21.48C92.5101 21.736 93.0061 21.864 93.5501 21.864C94.0941 21.864 94.5901 21.736 95.0381 21.48C95.4967 21.2133 95.8594 20.8347 96.1261 20.344C96.3927 19.8427 96.5261 19.2613 96.5261 18.6ZM107.828 23.144C107.156 23.144 106.554 23.032 106.02 22.808C105.487 22.5733 105.066 22.2533 104.756 21.848C104.447 21.432 104.276 20.9573 104.244 20.424H105.748C105.791 20.8613 105.994 21.2187 106.356 21.496C106.73 21.7733 107.215 21.912 107.812 21.912C108.367 21.912 108.804 21.7893 109.124 21.544C109.444 21.2987 109.604 20.9893 109.604 20.616C109.604 20.232 109.434 19.9493 109.092 19.768C108.751 19.576 108.223 19.3893 107.508 19.208C106.858 19.0373 106.324 18.8667 105.908 18.696C105.503 18.5147 105.151 18.2533 104.852 17.912C104.564 17.56 104.42 17.1013 104.42 16.536C104.42 16.088 104.554 15.6773 104.82 15.304C105.087 14.9307 105.466 14.6373 105.956 14.424C106.447 14.2 107.007 14.088 107.636 14.088C108.607 14.088 109.391 14.3333 109.988 14.824C110.586 15.3147 110.906 15.9867 110.948 16.84H109.492C109.46 16.3813 109.274 16.0133 108.932 15.736C108.602 15.4587 108.154 15.32 107.588 15.32C107.066 15.32 106.65 15.432 106.34 15.656C106.031 15.88 105.876 16.1733 105.876 16.536C105.876 16.824 105.967 17.064 106.148 17.256C106.34 17.4373 106.575 17.5867 106.852 17.704C107.14 17.8107 107.535 17.9333 108.036 18.072C108.666 18.2427 109.178 18.4133 109.572 18.584C109.967 18.744 110.303 18.9893 110.58 19.32C110.868 19.6507 111.018 20.0827 111.028 20.616C111.028 21.096 110.895 21.528 110.628 21.912C110.362 22.296 109.983 22.6 109.492 22.824C109.012 23.0373 108.458 23.144 107.828 23.144ZM114.54 15.848C114.828 15.3467 115.254 14.9307 115.82 14.6C116.396 14.2587 117.062 14.088 117.82 14.088C118.598 14.088 119.302 14.2747 119.932 14.648C120.572 15.0213 121.073 15.5493 121.436 16.232C121.798 16.904 121.98 17.688 121.98 18.584C121.98 19.4693 121.798 20.2587 121.436 20.952C121.073 21.6453 120.572 22.184 119.932 22.568C119.302 22.952 118.598 23.144 117.82 23.144C117.073 23.144 116.412 22.9787 115.836 22.648C115.27 22.3067 114.838 21.8853 114.54 21.384V27.16H113.084V14.232H114.54V15.848ZM120.492 18.584C120.492 17.9227 120.358 17.3467 120.092 16.856C119.825 16.3653 119.462 15.992 119.004 15.736C118.556 15.48 118.06 15.352 117.516 15.352C116.982 15.352 116.486 15.4853 116.028 15.752C115.58 16.008 115.217 16.3867 114.94 16.888C114.673 17.3787 114.54 17.9493 114.54 18.6C114.54 19.2613 114.673 19.8427 114.94 20.344C115.217 20.8347 115.58 21.2133 116.028 21.48C116.486 21.736 116.982 21.864 117.516 21.864C118.06 21.864 118.556 21.736 119.004 21.48C119.462 21.2133 119.825 20.8347 120.092 20.344C120.358 19.8427 120.492 19.256 120.492 18.584ZM131.896 18.28C131.896 18.5573 131.88 18.8507 131.848 19.16H124.84C124.893 20.024 125.187 20.7013 125.72 21.192C126.264 21.672 126.92 21.912 127.688 21.912C128.317 21.912 128.84 21.768 129.256 21.48C129.683 21.1813 129.981 20.7867 130.152 20.296H131.72C131.485 21.1387 131.016 21.8267 130.312 22.36C129.608 22.8827 128.733 23.144 127.688 23.144C126.856 23.144 126.109 22.9573 125.448 22.584C124.797 22.2107 124.285 21.6827 123.912 21C123.539 20.3067 123.352 19.5067 123.352 18.6C123.352 17.6933 123.533 16.8987 123.896 16.216C124.259 15.5333 124.765 15.0107 125.416 14.648C126.077 14.2747 126.835 14.088 127.688 14.088C128.52 14.088 129.256 14.2693 129.896 14.632C130.536 14.9947 131.027 15.496 131.368 16.136C131.72 16.7653 131.896 17.48 131.896 18.28ZM130.392 17.976C130.392 17.4213 130.269 16.9467 130.024 16.552C129.779 16.1467 129.443 15.8427 129.016 15.64C128.6 15.4267 128.136 15.32 127.624 15.32C126.888 15.32 126.259 15.5547 125.736 16.024C125.224 16.4933 124.931 17.144 124.856 17.976H130.392ZM133.274 18.6C133.274 17.6933 133.455 16.904 133.818 16.232C134.181 15.5493 134.682 15.0213 135.322 14.648C135.973 14.2747 136.714 14.088 137.546 14.088C138.623 14.088 139.509 14.3493 140.202 14.872C140.906 15.3947 141.37 16.12 141.594 17.048H140.026C139.877 16.5147 139.583 16.0933 139.146 15.784C138.719 15.4747 138.186 15.32 137.546 15.32C136.714 15.32 136.042 15.608 135.53 16.184C135.018 16.7493 134.762 17.5547 134.762 18.6C134.762 19.656 135.018 20.472 135.53 21.048C136.042 21.624 136.714 21.912 137.546 21.912C138.186 21.912 138.719 21.7627 139.146 21.464C139.573 21.1653 139.866 20.7387 140.026 20.184H141.594C141.359 21.08 140.89 21.8 140.186 22.344C139.482 22.8773 138.602 23.144 137.546 23.144C136.714 23.144 135.973 22.9573 135.322 22.584C134.682 22.2107 134.181 21.6827 133.818 21C133.455 20.3173 133.274 19.5173 133.274 18.6ZM144.289 12.808C144.011 12.808 143.777 12.712 143.585 12.52C143.393 12.328 143.297 12.0933 143.297 11.816C143.297 11.5387 143.393 11.304 143.585 11.112C143.777 10.92 144.011 10.824 144.289 10.824C144.555 10.824 144.779 10.92 144.961 11.112C145.153 11.304 145.249 11.5387 145.249 11.816C145.249 12.0933 145.153 12.328 144.961 12.52C144.779 12.712 144.555 12.808 144.289 12.808ZM144.993 14.232V23H143.537V14.232H144.993ZM146.93 18.584C146.93 17.688 147.112 16.904 147.474 16.232C147.837 15.5493 148.333 15.0213 148.962 14.648C149.602 14.2747 150.312 14.088 151.09 14.088C151.858 14.088 152.525 14.2533 153.09 14.584C153.656 14.9147 154.077 15.3307 154.354 15.832V14.232H155.826V23H154.354V21.368C154.066 21.88 153.634 22.3067 153.058 22.648C152.493 22.9787 151.832 23.144 151.074 23.144C150.296 23.144 149.592 22.952 148.962 22.568C148.333 22.184 147.837 21.6453 147.474 20.952C147.112 20.2587 146.93 19.4693 146.93 18.584ZM154.354 18.6C154.354 17.9387 154.221 17.3627 153.954 16.872C153.688 16.3813 153.325 16.008 152.866 15.752C152.418 15.4853 151.922 15.352 151.378 15.352C150.834 15.352 150.338 15.48 149.89 15.736C149.442 15.992 149.085 16.3653 148.818 16.856C148.552 17.3467 148.418 17.9227 148.418 18.584C148.418 19.256 148.552 19.8427 148.818 20.344C149.085 20.8347 149.442 21.2133 149.89 21.48C150.338 21.736 150.834 21.864 151.378 21.864C151.922 21.864 152.418 21.736 152.866 21.48C153.325 21.2133 153.688 20.8347 153.954 20.344C154.221 19.8427 154.354 19.2613 154.354 18.6ZM159.743 11.16V23H158.287V11.16H159.743ZM26.2028 30.808C25.9254 30.808 25.6908 30.712 25.4988 30.52C25.3068 30.328 25.2108 30.0933 25.2108 29.816C25.2108 29.5387 25.3068 29.304 25.4988 29.112C25.6908 28.92 25.9254 28.824 26.2028 28.824C26.4694 28.824 26.6934 28.92 26.8748 29.112C27.0668 29.304 27.1628 29.5387 27.1628 29.816C27.1628 30.0933 27.0668 30.328 26.8748 30.52C26.6934 30.712 26.4694 30.808 26.2028 30.808ZM26.9068 32.232V41H25.4508V32.232H26.9068ZM33.6603 32.072C34.7269 32.072 35.5909 32.3973 36.2523 33.048C36.9136 33.688 37.2443 34.616 37.2443 35.832V41H35.8043V36.04C35.8043 35.1653 35.5856 34.4987 35.1483 34.04C34.7109 33.5707 34.1136 33.336 33.3563 33.336C32.5883 33.336 31.9749 33.576 31.5163 34.056C31.0683 34.536 30.8443 35.2347 30.8443 36.152V41H29.3883V32.232H30.8443V33.48C31.1323 33.032 31.5216 32.6853 32.0123 32.44C32.5136 32.1947 33.0629 32.072 33.6603 32.072ZM41.3986 33.432V38.6C41.3986 39.0267 41.4893 39.3307 41.6706 39.512C41.852 39.6827 42.1666 39.768 42.6146 39.768H43.6866V41H42.3746C41.564 41 40.956 40.8133 40.5506 40.44C40.1453 40.0667 39.9426 39.4533 39.9426 38.6V33.432H38.8066V32.232H39.9426V30.024H41.3986V32.232H43.6866V33.432H41.3986ZM53.4508 36.28C53.4508 36.5573 53.4348 36.8507 53.4028 37.16H46.3948C46.4481 38.024 46.7414 38.7013 47.2748 39.192C47.8188 39.672 48.4748 39.912 49.2428 39.912C49.8721 39.912 50.3948 39.768 50.8108 39.48C51.2374 39.1813 51.5361 38.7867 51.7068 38.296H53.2748C53.0401 39.1387 52.5708 39.8267 51.8668 40.36C51.1628 40.8827 50.2881 41.144 49.2428 41.144C48.4108 41.144 47.6641 40.9573 47.0028 40.584C46.3521 40.2107 45.8401 39.6827 45.4668 39C45.0934 38.3067 44.9068 37.5067 44.9068 36.6C44.9068 35.6933 45.0881 34.8987 45.4508 34.216C45.8134 33.5333 46.3201 33.0107 46.9708 32.648C47.6321 32.2747 48.3894 32.088 49.2428 32.088C50.0748 32.088 50.8108 32.2693 51.4508 32.632C52.0908 32.9947 52.5814 33.496 52.9228 34.136C53.2748 34.7653 53.4508 35.48 53.4508 36.28ZM51.9468 35.976C51.9468 35.4213 51.8241 34.9467 51.5788 34.552C51.3334 34.1467 50.9974 33.8427 50.5708 33.64C50.1548 33.4267 49.6908 33.32 49.1788 33.32C48.4428 33.32 47.8134 33.5547 47.2908 34.024C46.7788 34.4933 46.4854 35.144 46.4108 35.976H51.9468ZM56.8286 33.656C57.0846 33.1547 57.4473 32.7653 57.9166 32.488C58.3966 32.2107 58.978 32.072 59.6606 32.072V33.576H59.2766C57.6446 33.576 56.8286 34.4613 56.8286 36.232V41H55.3726V32.232H56.8286V33.656ZM69.3414 36.28C69.3414 36.5573 69.3254 36.8507 69.2934 37.16H62.2854C62.3387 38.024 62.632 38.7013 63.1654 39.192C63.7094 39.672 64.3654 39.912 65.1334 39.912C65.7627 39.912 66.2854 39.768 66.7014 39.48C67.128 39.1813 67.4267 38.7867 67.5974 38.296H69.1654C68.9307 39.1387 68.4614 39.8267 67.7574 40.36C67.0534 40.8827 66.1787 41.144 65.1334 41.144C64.3014 41.144 63.5547 40.9573 62.8934 40.584C62.2427 40.2107 61.7307 39.6827 61.3574 39C60.984 38.3067 60.7974 37.5067 60.7974 36.6C60.7974 35.6933 60.9787 34.8987 61.3414 34.216C61.704 33.5333 62.2107 33.0107 62.8614 32.648C63.5227 32.2747 64.28 32.088 65.1334 32.088C65.9654 32.088 66.7014 32.2693 67.3414 32.632C67.9814 32.9947 68.472 33.496 68.8134 34.136C69.1654 34.7653 69.3414 35.48 69.3414 36.28ZM67.8374 35.976C67.8374 35.4213 67.7147 34.9467 67.4694 34.552C67.224 34.1467 66.888 33.8427 66.4614 33.64C66.0454 33.4267 65.5814 33.32 65.0694 33.32C64.3334 33.32 63.704 33.5547 63.1814 34.024C62.6694 34.4933 62.376 35.144 62.3014 35.976H67.8374ZM74.3673 41.144C73.6953 41.144 73.0926 41.032 72.5593 40.808C72.0259 40.5733 71.6046 40.2533 71.2953 39.848C70.9859 39.432 70.8153 38.9573 70.7833 38.424H72.2873C72.3299 38.8613 72.5326 39.2187 72.8953 39.496C73.2686 39.7733 73.7539 39.912 74.3513 39.912C74.9059 39.912 75.3433 39.7893 75.6633 39.544C75.9833 39.2987 76.1433 38.9893 76.1433 38.616C76.1433 38.232 75.9726 37.9493 75.6313 37.768C75.2899 37.576 74.7619 37.3893 74.0473 37.208C73.3966 37.0373 72.8633 36.8667 72.4473 36.696C72.0419 36.5147 71.6899 36.2533 71.3913 35.912C71.1033 35.56 70.9593 35.1013 70.9593 34.536C70.9593 34.088 71.0926 33.6773 71.3593 33.304C71.6259 32.9307 72.0046 32.6373 72.4953 32.424C72.9859 32.2 73.5459 32.088 74.1753 32.088C75.1459 32.088 75.9299 32.3333 76.5273 32.824C77.1246 33.3147 77.4446 33.9867 77.4873 34.84H76.0313C75.9993 34.3813 75.8126 34.0133 75.4713 33.736C75.1406 33.4587 74.6926 33.32 74.1273 33.32C73.6046 33.32 73.1886 33.432 72.8793 33.656C72.5699 33.88 72.4153 34.1733 72.4153 34.536C72.4153 34.824 72.5059 35.064 72.6873 35.256C72.8793 35.4373 73.1139 35.5867 73.3913 35.704C73.6793 35.8107 74.0739 35.9333 74.5753 36.072C75.2046 36.2427 75.7166 36.4133 76.1113 36.584C76.5059 36.744 76.8419 36.9893 77.1193 37.32C77.4073 37.6507 77.5566 38.0827 77.5673 38.616C77.5673 39.096 77.4339 39.528 77.1673 39.912C76.9006 40.296 76.5219 40.6 76.0313 40.824C75.5513 41.0373 74.9966 41.144 74.3673 41.144ZM81.3986 33.432V38.6C81.3986 39.0267 81.4893 39.3307 81.6706 39.512C81.852 39.6827 82.1666 39.768 82.6146 39.768H83.6866V41H82.3746C81.564 41 80.956 40.8133 80.5506 40.44C80.1453 40.0667 79.9426 39.4533 79.9426 38.6V33.432H78.8066V32.232H79.9426V30.024H81.3986V32.232H83.6866V33.432H81.3986ZM90.4684 30.808C90.191 30.808 89.9564 30.712 89.7644 30.52C89.5724 30.328 89.4764 30.0933 89.4764 29.816C89.4764 29.5387 89.5724 29.304 89.7644 29.112C89.9564 28.92 90.191 28.824 90.4684 28.824C90.735 28.824 90.959 28.92 91.1404 29.112C91.3324 29.304 91.4284 29.5387 91.4284 29.816C91.4284 30.0933 91.3324 30.328 91.1404 30.52C90.959 30.712 90.735 30.808 90.4684 30.808ZM91.1724 32.232V41H89.7164V32.232H91.1724ZM97.9259 32.072C98.9925 32.072 99.8565 32.3973 100.518 33.048C101.179 33.688 101.51 34.616 101.51 35.832V41H100.07V36.04C100.07 35.1653 99.8512 34.4987 99.4139 34.04C98.9765 33.5707 98.3792 33.336 97.6219 33.336C96.8539 33.336 96.2405 33.576 95.7819 34.056C95.3339 34.536 95.1099 35.2347 95.1099 36.152V41H93.6539V32.232H95.1099V33.48C95.3979 33.032 95.7872 32.6853 96.2779 32.44C96.7792 32.1947 97.3285 32.072 97.9259 32.072ZM109.61 29.16V41H108.154V29.16H109.61ZM120.091 36.28C120.091 36.5573 120.075 36.8507 120.043 37.16H113.035C113.089 38.024 113.382 38.7013 113.915 39.192C114.459 39.672 115.115 39.912 115.883 39.912C116.513 39.912 117.035 39.768 117.451 39.48C117.878 39.1813 118.177 38.7867 118.347 38.296H119.915C119.681 39.1387 119.211 39.8267 118.507 40.36C117.803 40.8827 116.929 41.144 115.883 41.144C115.051 41.144 114.305 40.9573 113.643 40.584C112.993 40.2107 112.481 39.6827 112.107 39C111.734 38.3067 111.547 37.5067 111.547 36.6C111.547 35.6933 111.729 34.8987 112.091 34.216C112.454 33.5333 112.961 33.0107 113.611 32.648C114.273 32.2747 115.03 32.088 115.883 32.088C116.715 32.088 117.451 32.2693 118.091 32.632C118.731 32.9947 119.222 33.496 119.563 34.136C119.915 34.7653 120.091 35.48 120.091 36.28ZM118.587 35.976C118.587 35.4213 118.465 34.9467 118.219 34.552C117.974 34.1467 117.638 33.8427 117.211 33.64C116.795 33.4267 116.331 33.32 115.819 33.32C115.083 33.32 114.454 33.5547 113.931 34.024C113.419 34.4933 113.126 35.144 113.051 35.976H118.587ZM121.469 36.584C121.469 35.688 121.651 34.904 122.013 34.232C122.376 33.5493 122.872 33.0213 123.501 32.648C124.141 32.2747 124.851 32.088 125.629 32.088C126.397 32.088 127.064 32.2533 127.629 32.584C128.195 32.9147 128.616 33.3307 128.893 33.832V32.232H130.365V41H128.893V39.368C128.605 39.88 128.173 40.3067 127.597 40.648C127.032 40.9787 126.371 41.144 125.613 41.144C124.835 41.144 124.131 40.952 123.501 40.568C122.872 40.184 122.376 39.6453 122.013 38.952C121.651 38.2587 121.469 37.4693 121.469 36.584ZM128.893 36.6C128.893 35.9387 128.76 35.3627 128.493 34.872C128.227 34.3813 127.864 34.008 127.405 33.752C126.957 33.4853 126.461 33.352 125.917 33.352C125.373 33.352 124.877 33.48 124.429 33.736C123.981 33.992 123.624 34.3653 123.357 34.856C123.091 35.3467 122.957 35.9227 122.957 36.584C122.957 37.256 123.091 37.8427 123.357 38.344C123.624 38.8347 123.981 39.2133 124.429 39.48C124.877 39.736 125.373 39.864 125.917 39.864C126.461 39.864 126.957 39.736 127.405 39.48C127.864 39.2133 128.227 38.8347 128.493 38.344C128.76 37.8427 128.893 37.2613 128.893 36.6ZM134.282 33.656C134.538 33.1547 134.9 32.7653 135.37 32.488C135.85 32.2107 136.431 32.072 137.114 32.072V33.576H136.73C135.098 33.576 134.282 34.4613 134.282 36.232V41H132.826V32.232H134.282V33.656ZM143.067 32.072C144.133 32.072 144.997 32.3973 145.659 33.048C146.32 33.688 146.651 34.616 146.651 35.832V41H145.211V36.04C145.211 35.1653 144.992 34.4987 144.555 34.04C144.117 33.5707 143.52 33.336 142.763 33.336C141.995 33.336 141.381 33.576 140.923 34.056C140.475 34.536 140.251 35.2347 140.251 36.152V41H138.795V32.232H140.251V33.48C140.539 33.032 140.928 32.6853 141.419 32.44C141.92 32.1947 142.469 32.072 143.067 32.072ZM149.781 30.808C149.504 30.808 149.269 30.712 149.077 30.52C148.885 30.328 148.789 30.0933 148.789 29.816C148.789 29.5387 148.885 29.304 149.077 29.112C149.269 28.92 149.504 28.824 149.781 28.824C150.048 28.824 150.272 28.92 150.453 29.112C150.645 29.304 150.741 29.5387 150.741 29.816C150.741 30.0933 150.645 30.328 150.453 30.52C150.272 30.712 150.048 30.808 149.781 30.808ZM150.485 32.232V41H149.029V32.232H150.485ZM157.238 32.072C158.305 32.072 159.169 32.3973 159.83 33.048C160.492 33.688 160.822 34.616 160.822 35.832V41H159.382V36.04C159.382 35.1653 159.164 34.4987 158.726 34.04C158.289 33.5707 157.692 33.336 156.934 33.336C156.166 33.336 155.553 33.576 155.094 34.056C154.646 34.536 154.422 35.2347 154.422 36.152V41H152.966V32.232H154.422V33.48C154.71 33.032 155.1 32.6853 155.59 32.44C156.092 32.1947 156.641 32.072 157.238 32.072ZM166.817 32.088C167.574 32.088 168.235 32.2533 168.801 32.584C169.377 32.9147 169.803 33.3307 170.081 33.832V32.232H171.553V41.192C171.553 41.992 171.382 42.7013 171.041 43.32C170.699 43.9493 170.209 44.44 169.569 44.792C168.939 45.144 168.203 45.32 167.361 45.32C166.209 45.32 165.249 45.048 164.481 44.504C163.713 43.96 163.259 43.2187 163.121 42.28H164.561C164.721 42.8133 165.051 43.24 165.553 43.56C166.054 43.8907 166.657 44.056 167.361 44.056C168.161 44.056 168.811 43.8053 169.313 43.304C169.825 42.8027 170.081 42.0987 170.081 41.192V39.352C169.793 39.864 169.366 40.2907 168.801 40.632C168.235 40.9733 167.574 41.144 166.817 41.144C166.038 41.144 165.329 40.952 164.689 40.568C164.059 40.184 163.563 39.6453 163.201 38.952C162.838 38.2587 162.657 37.4693 162.657 36.584C162.657 35.688 162.838 34.904 163.201 34.232C163.563 33.5493 164.059 33.0213 164.689 32.648C165.329 32.2747 166.038 32.088 166.817 32.088ZM170.081 36.6C170.081 35.9387 169.947 35.3627 169.681 34.872C169.414 34.3813 169.051 34.008 168.593 33.752C168.145 33.4853 167.649 33.352 167.105 33.352C166.561 33.352 166.065 33.48 165.617 33.736C165.169 33.992 164.811 34.3653 164.545 34.856C164.278 35.3467 164.145 35.9227 164.145 36.584C164.145 37.256 164.278 37.8427 164.545 38.344C164.811 38.8347 165.169 39.2133 165.617 39.48C166.065 39.736 166.561 39.864 167.105 39.864C167.649 39.864 168.145 39.736 168.593 39.48C169.051 39.2133 169.414 38.8347 169.681 38.344C169.947 37.8427 170.081 37.2613 170.081 36.6Z" fill="black"/>
<g clip-path="url(#clip0_105102_3276)">
<path d="M71.493 72.4443C73.0675 72.4443 74.3439 71.1674 74.3439 69.5922C74.3439 68.017 73.0675 66.74 71.493 66.74C69.9185 66.74 68.6421 68.017 68.6421 69.5922C68.6421 71.1674 69.9185 72.4443 71.493 72.4443Z" fill="#61DAFB"/>
<path d="M87.4861 69.5921C87.4861 67.3521 84.8577 65.4043 80.769 64.2356C81.7981 60.1034 81.4365 56.8477 79.4896 55.7347C77.5426 54.6077 74.5526 55.9295 71.493 58.8791C68.4335 55.9156 65.4435 54.6077 63.4965 55.7347C61.8833 56.6669 61.2853 59.0321 61.8277 62.3991C61.925 62.9973 62.0641 63.6095 62.2171 64.2495C58.1284 65.4182 55.5 67.366 55.5 69.606C55.5 71.846 58.1284 73.7799 62.2171 74.9625C62.0641 75.5886 61.925 76.2147 61.8277 76.813C61.2853 80.1799 61.8833 82.5451 63.4965 83.4773C63.9694 83.7556 64.5117 83.8947 65.1097 83.8947C66.5282 83.8947 68.2388 83.1156 70.1023 81.5991C70.5613 81.2234 71.0341 80.7921 71.493 80.3469C71.952 80.7921 72.4248 81.2234 72.8837 81.5991C74.7473 83.1156 76.4578 83.8947 77.8764 83.8947C78.4744 83.8947 79.0167 83.7556 79.4896 83.4773C81.1028 82.5451 81.7008 80.1799 81.1723 76.813C81.075 76.2147 80.9359 75.6025 80.7829 74.9625C84.8716 73.7938 87.5 71.846 87.5 69.606L87.4861 69.5921ZM78.7942 56.9312C80.0458 57.6547 80.324 60.2982 79.42 63.8877C78.1128 63.5817 76.6804 63.3591 75.1645 63.2199C74.2884 61.9817 73.3705 60.8547 72.4665 59.8669C74.5804 57.8217 76.5413 56.7086 77.8903 56.7086C78.2379 56.7086 78.5439 56.7782 78.8081 56.9312H78.7942ZM75.9572 72.166C75.4565 73.0147 74.942 73.8495 74.4135 74.6286C73.4817 74.6982 72.5083 74.7399 71.507 74.7399C70.5056 74.7399 69.5322 74.6982 68.6004 74.6286C68.0719 73.8495 67.5435 73.0147 67.0567 72.166C66.5561 71.3034 66.111 70.4547 65.6938 69.5921C66.111 68.7295 66.5561 67.8808 67.0567 67.0182C67.5574 66.1417 68.0858 65.3208 68.6004 64.5556C69.5322 64.486 70.5056 64.4443 71.507 64.4443C72.5083 64.4443 73.4817 64.486 74.4135 64.5556C74.942 65.3208 75.4565 66.1417 75.9572 67.0182C76.4439 67.8669 76.9029 68.7295 77.3201 69.5921C76.9168 70.4408 76.4718 71.2895 75.9572 72.166ZM78.0432 71.2199C78.4326 72.1521 78.7664 73.0564 79.0445 73.9469C78.1545 74.1417 77.1949 74.3225 76.1797 74.4477C76.5135 73.933 76.8333 73.4043 77.1532 72.8617C77.4731 72.3191 77.7651 71.7625 78.0432 71.2199ZM71.493 78.3156C70.8672 77.6338 70.2414 76.8825 69.6295 76.0756C70.2414 76.1034 70.8533 76.1173 71.493 76.1173C72.1328 76.1173 72.7447 76.1034 73.3566 76.0756C72.7447 76.8825 72.1189 77.6199 71.493 78.3156ZM66.8064 74.4477C65.7912 74.3225 64.8316 74.1556 63.9415 73.9469C64.2197 73.0564 64.5535 72.1521 64.9429 71.2199C65.221 71.7625 65.513 72.3191 65.8329 72.8617C66.1528 73.4043 66.4726 73.933 66.8064 74.4477ZM64.9429 67.9504C64.5535 67.0182 64.2197 66.1138 63.9415 65.2234C64.8316 65.0286 65.7912 64.8477 66.8064 64.7225C66.4726 65.2373 66.1528 65.766 65.8329 66.3086C65.513 66.8512 65.221 67.3938 64.9429 67.9504ZM71.493 60.8547C72.105 61.5225 72.7308 62.2738 73.3566 63.0947C72.7447 63.0669 72.1328 63.053 71.493 63.053C70.8533 63.053 70.2414 63.0669 69.6295 63.0947C70.2553 62.2738 70.8672 61.5225 71.493 60.8547ZM77.1532 66.3225C76.8333 65.7799 76.5135 65.2512 76.1797 64.7364C77.1949 64.8617 78.1545 65.0286 79.0445 65.2373C78.7803 66.1138 78.4465 67.0182 78.0432 67.9643C77.7651 67.4217 77.4591 66.8651 77.1532 66.3225ZM63.1906 62.1764C62.7595 59.4634 63.121 57.5573 64.1919 56.9451C64.4561 56.7921 64.7621 56.7225 65.1097 56.7225C66.4587 56.7225 68.4196 57.8356 70.5335 59.8808C69.6156 60.8686 68.7116 61.9956 67.8355 63.2338C66.3196 63.373 64.8872 63.5956 63.58 63.9017C63.427 63.3173 63.3018 62.733 63.2184 62.1904L63.1906 62.1764ZM56.8907 69.5921C56.8907 68.1451 59.0324 66.5869 62.5926 65.5712C62.9959 66.8651 63.5243 68.2147 64.1502 69.5921C63.5243 70.9556 62.9959 72.3051 62.5926 73.613C59.0463 72.5973 56.8907 71.053 56.8907 69.5921ZM69.2262 80.486C67.0984 82.2112 65.2627 82.8512 64.1919 82.2391C63.121 81.6269 62.7595 79.7069 63.1906 77.0077C63.274 76.4512 63.4131 75.8808 63.5522 75.2964C64.8594 75.6025 66.2918 75.8251 67.8077 75.9643C68.6838 77.1886 69.5878 78.3295 70.5056 79.3312C70.0745 79.7486 69.6434 80.1521 69.2123 80.4999L69.2262 80.486ZM79.7955 77.0077C80.2266 79.7208 79.8651 81.6269 78.7942 82.2391C77.7234 82.8512 75.8877 82.2112 73.7599 80.486C73.3288 80.1382 72.8977 79.7347 72.4665 79.3173C73.3983 78.3156 74.3023 77.1886 75.1645 75.9643C76.6804 75.8251 78.1128 75.6025 79.42 75.2964C79.573 75.8808 79.6982 76.4651 79.7816 77.0077H79.7955ZM80.3935 73.5991C79.9902 72.3051 79.4618 70.9556 78.8359 69.5782C79.4757 68.1869 79.9902 66.8373 80.3935 65.5573C83.9537 66.573 86.0954 68.1173 86.0954 69.5782C86.0954 71.0391 83.9537 72.5834 80.3935 73.5991Z" fill="#61DAFB"/>
</g>
<path d="M58.7861 102L57.0341 98.82H56.5421V102H54.4901V93.576H57.9341C58.5981 93.576 59.1621 93.692 59.6261 93.924C60.0981 94.156 60.4501 94.476 60.6821 94.884C60.9141 95.284 61.0301 95.732 61.0301 96.228C61.0301 96.788 60.8701 97.288 60.5501 97.728C60.2381 98.168 59.7741 98.48 59.1581 98.664L61.1021 102H58.7861ZM56.5421 97.368H57.8141C58.1901 97.368 58.4701 97.276 58.6541 97.092C58.8461 96.908 58.9421 96.648 58.9421 96.312C58.9421 95.992 58.8461 95.74 58.6541 95.556C58.4701 95.372 58.1901 95.28 57.8141 95.28H56.5421V97.368ZM68.6302 98.544C68.6302 98.736 68.6182 98.936 68.5942 99.144H63.9502C63.9822 99.56 64.1142 99.88 64.3462 100.104C64.5862 100.32 64.8782 100.428 65.2222 100.428C65.7342 100.428 66.0902 100.212 66.2902 99.78H68.4742C68.3622 100.22 68.1582 100.616 67.8622 100.968C67.5742 101.32 67.2102 101.596 66.7702 101.796C66.3302 101.996 65.8382 102.096 65.2942 102.096C64.6382 102.096 64.0542 101.956 63.5422 101.676C63.0302 101.396 62.6302 100.996 62.3422 100.476C62.0542 99.956 61.9102 99.348 61.9102 98.652C61.9102 97.956 62.0502 97.348 62.3302 96.828C62.6182 96.308 63.0182 95.908 63.5302 95.628C64.0422 95.348 64.6302 95.208 65.2942 95.208C65.9422 95.208 66.5182 95.344 67.0222 95.616C67.5262 95.888 67.9182 96.276 68.1982 96.78C68.4862 97.284 68.6302 97.872 68.6302 98.544ZM66.5302 98.004C66.5302 97.652 66.4102 97.372 66.1702 97.164C65.9302 96.956 65.6302 96.852 65.2702 96.852C64.9262 96.852 64.6342 96.952 64.3942 97.152C64.1622 97.352 64.0182 97.636 63.9622 98.004H66.5302ZM69.3048 98.64C69.3048 97.952 69.4328 97.348 69.6888 96.828C69.9528 96.308 70.3088 95.908 70.7568 95.628C71.2048 95.348 71.7048 95.208 72.2568 95.208C72.7288 95.208 73.1408 95.304 73.4928 95.496C73.8528 95.688 74.1288 95.94 74.3208 96.252V95.304H76.3728V102H74.3208V101.052C74.1208 101.364 73.8408 101.616 73.4808 101.808C73.1288 102 72.7168 102.096 72.2448 102.096C71.7008 102.096 71.2048 101.956 70.7568 101.676C70.3088 101.388 69.9528 100.984 69.6888 100.464C69.4328 99.936 69.3048 99.328 69.3048 98.64ZM74.3208 98.652C74.3208 98.14 74.1768 97.736 73.8888 97.44C73.6088 97.144 73.2648 96.996 72.8568 96.996C72.4488 96.996 72.1008 97.144 71.8128 97.44C71.5328 97.728 71.3928 98.128 71.3928 98.64C71.3928 99.152 71.5328 99.56 71.8128 99.864C72.1008 100.16 72.4488 100.308 72.8568 100.308C73.2648 100.308 73.6088 100.16 73.8888 99.864C74.1768 99.568 74.3208 99.164 74.3208 98.652ZM77.4493 98.652C77.4493 97.956 77.5893 97.348 77.8693 96.828C78.1573 96.308 78.5533 95.908 79.0573 95.628C79.5693 95.348 80.1533 95.208 80.8093 95.208C81.6493 95.208 82.3493 95.428 82.9093 95.868C83.4773 96.308 83.8493 96.928 84.0253 97.728H81.8413C81.6573 97.216 81.3013 96.96 80.7733 96.96C80.3973 96.96 80.0973 97.108 79.8733 97.404C79.6493 97.692 79.5373 98.108 79.5373 98.652C79.5373 99.196 79.6493 99.616 79.8733 99.912C80.0973 100.2 80.3973 100.344 80.7733 100.344C81.3013 100.344 81.6573 100.088 81.8413 99.576H84.0253C83.8493 100.36 83.4773 100.976 82.9093 101.424C82.3413 101.872 81.6413 102.096 80.8093 102.096C80.1533 102.096 79.5693 101.956 79.0573 101.676C78.5533 101.396 78.1573 100.996 77.8693 100.476C77.5893 99.956 77.4493 99.348 77.4493 98.652ZM88.8549 100.26V102H87.8109C87.0669 102 86.4869 101.82 86.0709 101.46C85.6549 101.092 85.4469 100.496 85.4469 99.672V97.008H84.6309V95.304H85.4469V93.672H87.4989V95.304H88.8429V97.008H87.4989V99.696C87.4989 99.896 87.5469 100.04 87.6429 100.128C87.7389 100.216 87.8989 100.26 88.1229 100.26H88.8549Z" fill="black"/>
<g clip-path="url(#clip1_105102_3276)">
<path d="M128.195 56.6667L124.501 63.0667L120.805 56.6667H108.5L124.501 84.3805L140.5 56.6667H128.195Z" fill="#41B883"/>
<path d="M128.195 56.6667L124.501 63.0667L120.805 56.6667H114.9L124.501 73.2945L134.1 56.6667H128.195Z" fill="#34495E"/>
</g>
<path d="M114.226 93.576L111.238 102H108.67L105.682 93.576H107.866L109.954 99.936L112.054 93.576H114.226ZM121.696 95.304V102H119.644V101.088C119.436 101.384 119.152 101.624 118.792 101.808C118.44 101.984 118.048 102.072 117.616 102.072C117.104 102.072 116.652 101.96 116.26 101.736C115.868 101.504 115.564 101.172 115.348 100.74C115.132 100.308 115.024 99.8 115.024 99.216V95.304H117.064V98.94C117.064 99.388 117.18 99.736 117.412 99.984C117.644 100.232 117.956 100.356 118.348 100.356C118.748 100.356 119.064 100.232 119.296 99.984C119.528 99.736 119.644 99.388 119.644 98.94V95.304H121.696ZM129.482 98.544C129.482 98.736 129.47 98.936 129.446 99.144H124.802C124.834 99.56 124.966 99.88 125.198 100.104C125.438 100.32 125.73 100.428 126.074 100.428C126.586 100.428 126.942 100.212 127.142 99.78H129.326C129.214 100.22 129.01 100.616 128.714 100.968C128.426 101.32 128.062 101.596 127.622 101.796C127.182 101.996 126.69 102.096 126.146 102.096C125.49 102.096 124.906 101.956 124.394 101.676C123.882 101.396 123.482 100.996 123.194 100.476C122.906 99.956 122.762 99.348 122.762 98.652C122.762 97.956 122.902 97.348 123.182 96.828C123.47 96.308 123.87 95.908 124.382 95.628C124.894 95.348 125.482 95.208 126.146 95.208C126.794 95.208 127.37 95.344 127.874 95.616C128.378 95.888 128.77 96.276 129.05 96.78C129.338 97.284 129.482 97.872 129.482 98.544ZM127.382 98.004C127.382 97.652 127.262 97.372 127.022 97.164C126.782 96.956 126.482 96.852 126.122 96.852C125.778 96.852 125.486 96.952 125.246 97.152C125.014 97.352 124.87 97.636 124.814 98.004H127.382ZM131.524 102.096C131.164 102.096 130.868 101.992 130.636 101.784C130.412 101.568 130.3 101.304 130.3 100.992C130.3 100.672 130.412 100.404 130.636 100.188C130.868 99.972 131.164 99.864 131.524 99.864C131.876 99.864 132.164 99.972 132.388 100.188C132.62 100.404 132.736 100.672 132.736 100.992C132.736 101.304 132.62 101.568 132.388 101.784C132.164 101.992 131.876 102.096 131.524 102.096ZM134.971 94.608C134.611 94.608 134.315 94.504 134.083 94.296C133.859 94.08 133.747 93.816 133.747 93.504C133.747 93.184 133.859 92.92 134.083 92.712C134.315 92.496 134.611 92.388 134.971 92.388C135.323 92.388 135.611 92.496 135.835 92.712C136.067 92.92 136.183 93.184 136.183 93.504C136.183 93.816 136.067 94.08 135.835 94.296C135.611 94.504 135.323 94.608 134.971 94.608ZM136.003 102.864C136.003 103.688 135.795 104.28 135.379 104.64C134.963 105.008 134.383 105.192 133.639 105.192H132.835V103.452H133.327C133.551 103.452 133.711 103.408 133.807 103.32C133.903 103.232 133.951 103.088 133.951 102.888V95.304H136.003V102.864ZM140.202 102.096C139.618 102.096 139.098 101.996 138.642 101.796C138.186 101.596 137.826 101.324 137.562 100.98C137.298 100.628 137.15 100.236 137.118 99.804H139.146C139.17 100.036 139.278 100.224 139.47 100.368C139.662 100.512 139.898 100.584 140.178 100.584C140.434 100.584 140.63 100.536 140.766 100.44C140.91 100.336 140.982 100.204 140.982 100.044C140.982 99.852 140.882 99.712 140.682 99.624C140.482 99.528 140.158 99.424 139.71 99.312C139.23 99.2 138.83 99.084 138.51 98.964C138.19 98.836 137.914 98.64 137.682 98.376C137.45 98.104 137.334 97.74 137.334 97.284C137.334 96.9 137.438 96.552 137.646 96.24C137.862 95.92 138.174 95.668 138.582 95.484C138.998 95.3 139.49 95.208 140.058 95.208C140.898 95.208 141.558 95.416 142.038 95.832C142.526 96.248 142.806 96.8 142.878 97.488H140.982C140.95 97.256 140.846 97.072 140.67 96.936C140.502 96.8 140.278 96.732 139.998 96.732C139.758 96.732 139.574 96.78 139.446 96.876C139.318 96.964 139.254 97.088 139.254 97.248C139.254 97.44 139.354 97.584 139.554 97.68C139.762 97.776 140.082 97.872 140.514 97.968C141.01 98.096 141.414 98.224 141.726 98.352C142.038 98.472 142.31 98.672 142.542 98.952C142.782 99.224 142.906 99.592 142.914 100.056C142.914 100.448 142.802 100.8 142.578 101.112C142.362 101.416 142.046 101.656 141.63 101.832C141.222 102.008 140.746 102.096 140.202 102.096Z" fill="black"/>
<defs>
<filter id="filter0_d_105102_3276" x="0" y="0" width="196" height="134.415" filterUnits="userSpaceOnUse" color-interpolation-filters="sRGB">
<feFlood flood-opacity="0" result="BackgroundImageFix"/>
<feColorMatrix in="SourceAlpha" type="matrix" values="0 0 0 0 0 0 0 0 0 0 0 0 0 0 0 0 0 0 127 0" result="hardAlpha"/>
<feOffset dy="4"/>
<feGaussianBlur stdDeviation="2"/>
<feComposite in2="hardAlpha" operator="out"/>
<feColorMatrix type="matrix" values="0 0 0 0 0 0 0 0 0 0 0 0 0 0 0 0 0 0 0.25 0"/>
<feBlend mode="normal" in2="BackgroundImageFix" result="effect1_dropShadow_105102_3276"/>
<feBlend mode="normal" in="SourceGraphic" in2="effect1_dropShadow_105102_3276" result="shape"/>
</filter>
<clipPath id="clip0_105102_3276">
<rect width="32" height="32" fill="white" transform="translate(55.5 54)"/>
</clipPath>
<clipPath id="clip1_105102_3276">
<rect width="32" height="32" fill="white" transform="translate(108.5 54)"/>
</clipPath>
</defs>
</svg>
